<mxfile host="www.draw.io" modified="2019-11-03T10:09:55.579Z" agent="Mozilla/5.0 (X11; Ubuntu; Linux x86_64; rv:70.0) Gecko/20100101 Firefox/70.0" etag="5c0GI-AUmHcfkj8Ab4R9" version="12.1.9" type="github" pages="1">
  <diagram name="Page-1" id="58cdce13-f638-feb5-8d6f-7d28b1aa9fa0">
    <mxGraphModel dx="1408" dy="754" grid="1" gridSize="10" guides="1" tooltips="1" connect="1" arrows="1" fold="1" page="1" pageScale="1" pageWidth="1100" pageHeight="850" background="#ffffff" math="0" shadow="0">
      <root>
        <mxCell id="0"/>
        <mxCell id="1" parent="0"/>
        <mxCell id="382b91b5511bd0f7-1" value="" style="ellipse;html=1;shape=startState;fillColor=#000000;strokeColor=#ff0000;rounded=1;shadow=0;comic=0;labelBackgroundColor=none;fontFamily=Verdana;fontSize=12;fontColor=#000000;align=center;direction=south;" parent="1" vertex="1">
          <mxGeometry x="490" y="60" width="30" height="30" as="geometry"/>
        </mxCell>
        <mxCell id="DzwBYY1_Ko7MBKsdwWe6-12" style="edgeStyle=orthogonalEdgeStyle;orthogonalLoop=1;jettySize=auto;html=1;exitX=1;exitY=0.75;exitDx=0;exitDy=0;entryX=0;entryY=0.75;entryDx=0;entryDy=0;labelBackgroundColor=none;endArrow=open;endSize=8;strokeColor=#ff0000;fontFamily=Verdana;fontSize=12;align=left;" edge="1" parent="1" source="382b91b5511bd0f7-5" target="382b91b5511bd0f7-7">
          <mxGeometry relative="1" as="geometry"/>
        </mxCell>
        <mxCell id="DzwBYY1_Ko7MBKsdwWe6-13" style="edgeStyle=orthogonalEdgeStyle;orthogonalLoop=1;jettySize=auto;html=1;exitX=0.5;exitY=1;exitDx=0;exitDy=0;entryX=0.25;entryY=0;entryDx=0;entryDy=0;labelBackgroundColor=none;endArrow=open;endSize=8;strokeColor=#ff0000;fontFamily=Verdana;fontSize=12;align=left;" edge="1" parent="1" source="382b91b5511bd0f7-5" target="DzwBYY1_Ko7MBKsdwWe6-1">
          <mxGeometry relative="1" as="geometry"/>
        </mxCell>
        <mxCell id="382b91b5511bd0f7-5" value="Регистрация" style="rounded=1;whiteSpace=wrap;html=1;arcSize=24;fillColor=#ffffc0;strokeColor=#ff0000;shadow=0;comic=0;labelBackgroundColor=none;fontFamily=Verdana;fontSize=12;fontColor=#000000;align=center;" parent="1" vertex="1">
          <mxGeometry x="325" y="220" width="120" height="60" as="geometry"/>
        </mxCell>
        <mxCell id="DzwBYY1_Ko7MBKsdwWe6-9" style="edgeStyle=orthogonalEdgeStyle;orthogonalLoop=1;jettySize=auto;html=1;exitX=1;exitY=0.5;exitDx=0;exitDy=0;labelBackgroundColor=none;endArrow=open;endSize=8;strokeColor=#ff0000;fontFamily=Verdana;fontSize=12;align=left;" edge="1" parent="1" source="382b91b5511bd0f7-6" target="382b91b5511bd0f7-7">
          <mxGeometry relative="1" as="geometry"/>
        </mxCell>
        <mxCell id="DzwBYY1_Ko7MBKsdwWe6-10" style="edgeStyle=orthogonalEdgeStyle;orthogonalLoop=1;jettySize=auto;html=1;exitX=0;exitY=0.5;exitDx=0;exitDy=0;entryX=0.5;entryY=0;entryDx=0;entryDy=0;labelBackgroundColor=none;endArrow=open;endSize=8;strokeColor=#ff0000;fontFamily=Verdana;fontSize=12;align=left;" edge="1" parent="1" source="382b91b5511bd0f7-6" target="382b91b5511bd0f7-5">
          <mxGeometry relative="1" as="geometry"/>
        </mxCell>
        <mxCell id="382b91b5511bd0f7-6" value="Рекомендация для анонимных пользователей" style="rounded=1;whiteSpace=wrap;html=1;arcSize=24;fillColor=#ffffc0;strokeColor=#ff0000;shadow=0;comic=0;labelBackgroundColor=none;fontFamily=Verdana;fontSize=12;fontColor=#000000;align=center;" parent="1" vertex="1">
          <mxGeometry x="445" y="120" width="120" height="60" as="geometry"/>
        </mxCell>
        <mxCell id="DzwBYY1_Ko7MBKsdwWe6-11" style="edgeStyle=orthogonalEdgeStyle;orthogonalLoop=1;jettySize=auto;html=1;exitX=0;exitY=0.25;exitDx=0;exitDy=0;entryX=1;entryY=0.25;entryDx=0;entryDy=0;labelBackgroundColor=none;endArrow=open;endSize=8;strokeColor=#ff0000;fontFamily=Verdana;fontSize=12;align=left;" edge="1" parent="1" source="382b91b5511bd0f7-7" target="382b91b5511bd0f7-5">
          <mxGeometry relative="1" as="geometry"/>
        </mxCell>
        <mxCell id="DzwBYY1_Ko7MBKsdwWe6-14" style="edgeStyle=orthogonalEdgeStyle;orthogonalLoop=1;jettySize=auto;html=1;exitX=0.25;exitY=1;exitDx=0;exitDy=0;entryX=0.75;entryY=0;entryDx=0;entryDy=0;labelBackgroundColor=none;endArrow=open;endSize=8;strokeColor=#ff0000;fontFamily=Verdana;fontSize=12;align=left;" edge="1" parent="1" source="382b91b5511bd0f7-7" target="DzwBYY1_Ko7MBKsdwWe6-1">
          <mxGeometry relative="1" as="geometry"/>
        </mxCell>
        <mxCell id="382b91b5511bd0f7-7" value="Вход" style="rounded=1;whiteSpace=wrap;html=1;arcSize=24;fillColor=#ffffc0;strokeColor=#ff0000;shadow=0;comic=0;labelBackgroundColor=none;fontFamily=Verdana;fontSize=12;fontColor=#000000;align=center;" parent="1" vertex="1">
          <mxGeometry x="545" y="220" width="120" height="60" as="geometry"/>
        </mxCell>
        <mxCell id="DzwBYY1_Ko7MBKsdwWe6-32" style="edgeStyle=orthogonalEdgeStyle;orthogonalLoop=1;jettySize=auto;html=1;exitX=0;exitY=0.75;exitDx=0;exitDy=0;entryX=0.25;entryY=1;entryDx=0;entryDy=0;labelBackgroundColor=none;endArrow=open;endSize=8;strokeColor=#ff0000;fontFamily=Verdana;fontSize=12;align=left;" edge="1" parent="1" source="382b91b5511bd0f7-9" target="DzwBYY1_Ko7MBKsdwWe6-19">
          <mxGeometry relative="1" as="geometry"/>
        </mxCell>
        <mxCell id="DzwBYY1_Ko7MBKsdwWe6-34" style="edgeStyle=orthogonalEdgeStyle;orthogonalLoop=1;jettySize=auto;html=1;exitX=0.75;exitY=0;exitDx=0;exitDy=0;entryX=0.75;entryY=1;entryDx=0;entryDy=0;labelBackgroundColor=none;endArrow=open;endSize=8;strokeColor=#ff0000;fontFamily=Verdana;fontSize=12;align=left;" edge="1" parent="1" source="382b91b5511bd0f7-9" target="382b91b5511bd0f7-10">
          <mxGeometry relative="1" as="geometry"/>
        </mxCell>
        <mxCell id="DzwBYY1_Ko7MBKsdwWe6-37" style="edgeStyle=orthogonalEdgeStyle;orthogonalLoop=1;jettySize=auto;html=1;exitX=1;exitY=0.75;exitDx=0;exitDy=0;entryX=0.75;entryY=1;entryDx=0;entryDy=0;labelBackgroundColor=none;endArrow=open;endSize=8;strokeColor=#ff0000;fontFamily=Verdana;fontSize=12;align=left;" edge="1" parent="1" source="382b91b5511bd0f7-9" target="DzwBYY1_Ko7MBKsdwWe6-3">
          <mxGeometry relative="1" as="geometry"/>
        </mxCell>
        <mxCell id="382b91b5511bd0f7-9" value="&lt;div&gt;Добавление комментария&lt;/div&gt;" style="rounded=1;whiteSpace=wrap;html=1;arcSize=24;fillColor=#ffffc0;strokeColor=#ff0000;shadow=0;comic=0;labelBackgroundColor=none;fontFamily=Verdana;fontSize=12;fontColor=#000000;align=center;" parent="1" vertex="1">
          <mxGeometry x="520" y="720" width="120" height="60" as="geometry"/>
        </mxCell>
        <mxCell id="DzwBYY1_Ko7MBKsdwWe6-22" style="edgeStyle=orthogonalEdgeStyle;orthogonalLoop=1;jettySize=auto;html=1;exitX=1;exitY=0.25;exitDx=0;exitDy=0;entryX=0;entryY=0.25;entryDx=0;entryDy=0;labelBackgroundColor=none;endArrow=open;endSize=8;strokeColor=#ff0000;fontFamily=Verdana;fontSize=12;align=left;" edge="1" parent="1" source="382b91b5511bd0f7-10" target="DzwBYY1_Ko7MBKsdwWe6-3">
          <mxGeometry relative="1" as="geometry"/>
        </mxCell>
        <mxCell id="DzwBYY1_Ko7MBKsdwWe6-33" style="edgeStyle=orthogonalEdgeStyle;orthogonalLoop=1;jettySize=auto;html=1;exitX=0.25;exitY=1;exitDx=0;exitDy=0;entryX=0.25;entryY=0;entryDx=0;entryDy=0;labelBackgroundColor=none;endArrow=open;endSize=8;strokeColor=#ff0000;fontFamily=Verdana;fontSize=12;align=left;" edge="1" parent="1" source="382b91b5511bd0f7-10" target="382b91b5511bd0f7-9">
          <mxGeometry relative="1" as="geometry"/>
        </mxCell>
        <mxCell id="DzwBYY1_Ko7MBKsdwWe6-39" style="edgeStyle=orthogonalEdgeStyle;orthogonalLoop=1;jettySize=auto;html=1;exitX=0.25;exitY=0;exitDx=0;exitDy=0;entryX=0.25;entryY=1;entryDx=0;entryDy=0;labelBackgroundColor=none;endArrow=open;endSize=8;strokeColor=#ff0000;fontFamily=Verdana;fontSize=12;align=left;" edge="1" parent="1" source="382b91b5511bd0f7-10" target="DzwBYY1_Ko7MBKsdwWe6-2">
          <mxGeometry relative="1" as="geometry">
            <Array as="points">
              <mxPoint x="526" y="450"/>
              <mxPoint x="695" y="450"/>
            </Array>
          </mxGeometry>
        </mxCell>
        <mxCell id="382b91b5511bd0f7-10" value="Подробная информация о продукте для владельца (чтение)" style="rounded=1;whiteSpace=wrap;html=1;arcSize=24;fillColor=#ffffc0;strokeColor=#ff0000;shadow=0;comic=0;labelBackgroundColor=none;fontFamily=Verdana;fontSize=12;fontColor=#000000;align=center;" parent="1" vertex="1">
          <mxGeometry x="487.5" y="570" width="155" height="60" as="geometry"/>
        </mxCell>
        <mxCell id="2a3bc250acf0617d-9" style="edgeStyle=orthogonalEdgeStyle;html=1;labelBackgroundColor=none;endArrow=open;endSize=8;strokeColor=#ff0000;fontFamily=Verdana;fontSize=12;align=left;" parent="1" source="382b91b5511bd0f7-1" target="382b91b5511bd0f7-6" edge="1">
          <mxGeometry relative="1" as="geometry"/>
        </mxCell>
        <mxCell id="DzwBYY1_Ko7MBKsdwWe6-15" style="edgeStyle=orthogonalEdgeStyle;orthogonalLoop=1;jettySize=auto;html=1;exitX=1;exitY=0.25;exitDx=0;exitDy=0;entryX=0;entryY=0.25;entryDx=0;entryDy=0;labelBackgroundColor=none;endArrow=open;endSize=8;strokeColor=#ff0000;fontFamily=Verdana;fontSize=12;align=left;" edge="1" parent="1" source="DzwBYY1_Ko7MBKsdwWe6-1" target="DzwBYY1_Ko7MBKsdwWe6-2">
          <mxGeometry relative="1" as="geometry"/>
        </mxCell>
        <mxCell id="DzwBYY1_Ko7MBKsdwWe6-28" style="edgeStyle=orthogonalEdgeStyle;orthogonalLoop=1;jettySize=auto;html=1;exitX=0;exitY=0.25;exitDx=0;exitDy=0;entryX=1;entryY=0.25;entryDx=0;entryDy=0;labelBackgroundColor=none;endArrow=open;endSize=8;strokeColor=#ff0000;fontFamily=Verdana;fontSize=12;align=left;" edge="1" parent="1" source="DzwBYY1_Ko7MBKsdwWe6-1" target="DzwBYY1_Ko7MBKsdwWe6-5">
          <mxGeometry relative="1" as="geometry"/>
        </mxCell>
        <mxCell id="DzwBYY1_Ko7MBKsdwWe6-43" style="edgeStyle=orthogonalEdgeStyle;orthogonalLoop=1;jettySize=auto;html=1;exitX=0.25;exitY=1;exitDx=0;exitDy=0;entryX=0.75;entryY=0;entryDx=0;entryDy=0;labelBackgroundColor=none;endArrow=open;endSize=8;strokeColor=#ff0000;fontFamily=Verdana;fontSize=12;align=left;" edge="1" parent="1" source="DzwBYY1_Ko7MBKsdwWe6-1" target="DzwBYY1_Ko7MBKsdwWe6-19">
          <mxGeometry relative="1" as="geometry">
            <Array as="points">
              <mxPoint x="465" y="430"/>
              <mxPoint x="260" y="430"/>
            </Array>
          </mxGeometry>
        </mxCell>
        <mxCell id="DzwBYY1_Ko7MBKsdwWe6-1" value="Рекомендация для зарегистрированных пользователей" style="rounded=1;whiteSpace=wrap;html=1;arcSize=24;fillColor=#ffffc0;strokeColor=#ff0000;shadow=0;comic=0;labelBackgroundColor=none;fontFamily=Verdana;fontSize=12;fontColor=#000000;align=center;" vertex="1" parent="1">
          <mxGeometry x="425" y="330" width="160" height="60" as="geometry"/>
        </mxCell>
        <mxCell id="DzwBYY1_Ko7MBKsdwWe6-25" style="edgeStyle=orthogonalEdgeStyle;orthogonalLoop=1;jettySize=auto;html=1;exitX=0;exitY=0.75;exitDx=0;exitDy=0;labelBackgroundColor=none;endArrow=open;endSize=8;strokeColor=#ff0000;fontFamily=Verdana;fontSize=12;align=left;entryX=1;entryY=0.75;entryDx=0;entryDy=0;" edge="1" parent="1" source="DzwBYY1_Ko7MBKsdwWe6-2" target="DzwBYY1_Ko7MBKsdwWe6-1">
          <mxGeometry relative="1" as="geometry">
            <mxPoint x="590" y="360" as="targetPoint"/>
            <Array as="points">
              <mxPoint x="640" y="375"/>
              <mxPoint x="640" y="375"/>
            </Array>
          </mxGeometry>
        </mxCell>
        <mxCell id="DzwBYY1_Ko7MBKsdwWe6-38" style="edgeStyle=orthogonalEdgeStyle;orthogonalLoop=1;jettySize=auto;html=1;exitX=0.5;exitY=1;exitDx=0;exitDy=0;entryX=0.75;entryY=0;entryDx=0;entryDy=0;labelBackgroundColor=none;endArrow=open;endSize=8;strokeColor=#ff0000;fontFamily=Verdana;fontSize=12;align=left;" edge="1" parent="1" source="DzwBYY1_Ko7MBKsdwWe6-2" target="382b91b5511bd0f7-10">
          <mxGeometry relative="1" as="geometry"/>
        </mxCell>
        <mxCell id="DzwBYY1_Ko7MBKsdwWe6-2" value="&lt;div&gt;Продукты, принадлежащие пользователю&lt;/div&gt;" style="rounded=1;whiteSpace=wrap;html=1;arcSize=24;fillColor=#ffffc0;strokeColor=#ff0000;shadow=0;comic=0;labelBackgroundColor=none;fontFamily=Verdana;fontSize=12;fontColor=#000000;align=center;" vertex="1" parent="1">
          <mxGeometry x="665" y="330" width="120" height="60" as="geometry"/>
        </mxCell>
        <mxCell id="DzwBYY1_Ko7MBKsdwWe6-21" style="edgeStyle=orthogonalEdgeStyle;orthogonalLoop=1;jettySize=auto;html=1;exitX=0.75;exitY=0;exitDx=0;exitDy=0;entryX=0.75;entryY=1;entryDx=0;entryDy=0;labelBackgroundColor=none;endArrow=open;endSize=8;strokeColor=#ff0000;fontFamily=Verdana;fontSize=12;align=left;" edge="1" parent="1" source="DzwBYY1_Ko7MBKsdwWe6-3" target="DzwBYY1_Ko7MBKsdwWe6-2">
          <mxGeometry relative="1" as="geometry"/>
        </mxCell>
        <mxCell id="DzwBYY1_Ko7MBKsdwWe6-23" style="edgeStyle=orthogonalEdgeStyle;orthogonalLoop=1;jettySize=auto;html=1;exitX=0;exitY=0.75;exitDx=0;exitDy=0;entryX=1;entryY=0.75;entryDx=0;entryDy=0;labelBackgroundColor=none;endArrow=open;endSize=8;strokeColor=#ff0000;fontFamily=Verdana;fontSize=12;align=left;" edge="1" parent="1" source="DzwBYY1_Ko7MBKsdwWe6-3" target="382b91b5511bd0f7-10">
          <mxGeometry relative="1" as="geometry"/>
        </mxCell>
        <mxCell id="DzwBYY1_Ko7MBKsdwWe6-35" style="edgeStyle=orthogonalEdgeStyle;orthogonalLoop=1;jettySize=auto;html=1;exitX=0.25;exitY=1;exitDx=0;exitDy=0;entryX=1;entryY=0.25;entryDx=0;entryDy=0;labelBackgroundColor=none;endArrow=open;endSize=8;strokeColor=#ff0000;fontFamily=Verdana;fontSize=12;align=left;" edge="1" parent="1" source="DzwBYY1_Ko7MBKsdwWe6-3" target="382b91b5511bd0f7-9">
          <mxGeometry relative="1" as="geometry"/>
        </mxCell>
        <mxCell id="DzwBYY1_Ko7MBKsdwWe6-3" value="Подробная информация о продукте для владельца(редактирование)" style="rounded=1;whiteSpace=wrap;html=1;arcSize=24;fillColor=#ffffc0;strokeColor=#ff0000;shadow=0;comic=0;labelBackgroundColor=none;fontFamily=Verdana;fontSize=12;fontColor=#000000;align=center;" vertex="1" parent="1">
          <mxGeometry x="840" y="570" width="195" height="60" as="geometry"/>
        </mxCell>
        <mxCell id="DzwBYY1_Ko7MBKsdwWe6-30" style="edgeStyle=orthogonalEdgeStyle;orthogonalLoop=1;jettySize=auto;html=1;exitX=1;exitY=0.75;exitDx=0;exitDy=0;entryX=0;entryY=0.75;entryDx=0;entryDy=0;labelBackgroundColor=none;endArrow=open;endSize=8;strokeColor=#ff0000;fontFamily=Verdana;fontSize=12;align=left;" edge="1" parent="1" source="DzwBYY1_Ko7MBKsdwWe6-5" target="DzwBYY1_Ko7MBKsdwWe6-1">
          <mxGeometry relative="1" as="geometry"/>
        </mxCell>
        <mxCell id="DzwBYY1_Ko7MBKsdwWe6-42" style="edgeStyle=orthogonalEdgeStyle;orthogonalLoop=1;jettySize=auto;html=1;exitX=0;exitY=0.75;exitDx=0;exitDy=0;entryX=0.5;entryY=0;entryDx=0;entryDy=0;labelBackgroundColor=none;endArrow=open;endSize=8;strokeColor=#ff0000;fontFamily=Verdana;fontSize=12;align=left;" edge="1" parent="1" source="DzwBYY1_Ko7MBKsdwWe6-5" target="DzwBYY1_Ko7MBKsdwWe6-19">
          <mxGeometry relative="1" as="geometry"/>
        </mxCell>
        <mxCell id="DzwBYY1_Ko7MBKsdwWe6-5" value="&lt;div&gt;Оценка продукта&lt;br&gt;&lt;/div&gt;" style="rounded=1;whiteSpace=wrap;html=1;arcSize=24;fillColor=#ffffc0;strokeColor=#ff0000;shadow=0;comic=0;labelBackgroundColor=none;fontFamily=Verdana;fontSize=12;fontColor=#000000;align=center;" vertex="1" parent="1">
          <mxGeometry x="180" y="330" width="120" height="60" as="geometry"/>
        </mxCell>
        <mxCell id="DzwBYY1_Ko7MBKsdwWe6-31" style="edgeStyle=orthogonalEdgeStyle;orthogonalLoop=1;jettySize=auto;html=1;exitX=0.75;exitY=1;exitDx=0;exitDy=0;entryX=0;entryY=0.25;entryDx=0;entryDy=0;labelBackgroundColor=none;endArrow=open;endSize=8;strokeColor=#ff0000;fontFamily=Verdana;fontSize=12;align=left;" edge="1" parent="1" source="DzwBYY1_Ko7MBKsdwWe6-19" target="382b91b5511bd0f7-9">
          <mxGeometry relative="1" as="geometry"/>
        </mxCell>
        <mxCell id="DzwBYY1_Ko7MBKsdwWe6-40" style="edgeStyle=orthogonalEdgeStyle;orthogonalLoop=1;jettySize=auto;html=1;exitX=0.25;exitY=0;exitDx=0;exitDy=0;entryX=0;entryY=0.25;entryDx=0;entryDy=0;labelBackgroundColor=none;endArrow=open;endSize=8;strokeColor=#ff0000;fontFamily=Verdana;fontSize=12;align=left;" edge="1" parent="1" source="DzwBYY1_Ko7MBKsdwWe6-19" target="DzwBYY1_Ko7MBKsdwWe6-5">
          <mxGeometry relative="1" as="geometry">
            <Array as="points">
              <mxPoint x="200" y="550"/>
              <mxPoint x="130" y="550"/>
              <mxPoint x="130" y="480"/>
              <mxPoint x="90" y="480"/>
              <mxPoint x="90" y="345"/>
            </Array>
          </mxGeometry>
        </mxCell>
        <mxCell id="DzwBYY1_Ko7MBKsdwWe6-19" value="Подробная информация о продукте" style="rounded=1;whiteSpace=wrap;html=1;arcSize=24;fillColor=#ffffc0;strokeColor=#ff0000;shadow=0;comic=0;labelBackgroundColor=none;fontFamily=Verdana;fontSize=12;fontColor=#000000;align=center;" vertex="1" parent="1">
          <mxGeometry x="170" y="570" width="120" height="60" as="geometry"/>
        </mxCell>
      </root>
    </mxGraphModel>
  </diagram>
</mxfile>
